<svg xmlns="http://www.w3.org/2000/svg" viewBox="0 0 220 250" role="img" aria-label="DM Tuition crest">
  <defs>
    <linearGradient id="sh" x1="0" y1="0" x2="0" y2="1"><stop offset="0" stop-color="#16304f"/><stop offset="1" stop-color="#0b1d38"/></linearGradient>
    <linearGradient id="mg3" x1="0" y1="0" x2="1" y2="1"><stop offset="0" stop-color="#7fa0c4"/><stop offset="1" stop-color="#4f74a0"/></linearGradient>
  </defs>
  <path d="M30,28 L190,28 L190,140 C190,188 150,214 110,228 C70,214 30,188 30,140 Z" fill="url(#sh)" stroke="#a9c5de" stroke-width="2.5"/>
  <path d="M30,28 L190,28 L190,140 C190,188 150,214 110,228 C70,214 30,188 30,140 Z" fill="none" stroke="#5b7fa6" stroke-width="1" transform="scale(0.93)" transform-origin="110 125" opacity=".5"/>
  <line x1="46" y1="58" x2="174" y2="58" stroke="#5b7fa6" stroke-width="1" opacity=".5"/>
  <text x="110" y="138" text-anchor="middle" font-family="Georgia, serif" font-weight="700" font-size="68"><tspan fill="#eef3f8">D</tspan><tspan fill="url(#mg3)">M</tspan></text>
  <path d="M74,158 C92,151 104,152 110,157 C116,152 128,151 146,158 L146,176 C128,170 116,171 110,176 C104,171 92,170 74,176 Z" fill="#a9c5de" opacity=".9"/>
  <line x1="110" y1="157" x2="110" y2="176" stroke="#16304f" stroke-width="1.4"/>
  <!-- ribbon -->
  <path d="M44,206 L176,206 L168,230 L52,230 Z" fill="#5b7fa6"/>
  <path d="M44,206 L52,230 L36,226 Z" fill="#3c5a82"/><path d="M176,206 L168,230 L184,226 Z" fill="#3c5a82"/>
  <text x="110" y="223" text-anchor="middle" font-family="Outfit, Arial, sans-serif" font-weight="600" font-size="13" letter-spacing="5" fill="#0e2240">TUITION</text>
</svg>
